<svg width="240" height="240" viewBox="0 0 240 240" fill="none" xmlns="http://www.w3.org/2000/svg">
<g clip-path="url(#paint0_angular_8883_1802_clip_path)" data-figma-skip-parse="true"><g transform="matrix(-0.0437915 -0.0769163 0.0768272 -0.0438423 139.272 143.205)"><foreignObject x="-1442.53" y="-1442.53" width="2885.06" height="2885.06"><div xmlns="http://www.w3.org/1999/xhtml" style="background:conic-gradient(from 90deg,rgba(7, 39, 121, 1) 0deg,rgba(7, 39, 121, 1) 89.1835deg,rgba(7, 39, 121, 0) 180deg,rgba(7, 39, 121, 1) 360deg);height:100%;width:100%;opacity:1"></div></foreignObject></g></g><path d="M192.032 64.9823H96.0225L111.309 90.9989H191.38C208.712 90.9989 219.488 109.845 210.716 124.808L170.414 193.535L185.701 220.061L233.542 136.858C251.923 104.89 228.876 64.9823 192.032 64.9823Z" data-figma-gradient-fill="{&#34;type&#34;:&#34;GRADIENT_ANGULAR&#34;,&#34;stops&#34;:[{&#34;color&#34;:{&#34;r&#34;:0.027450980618596077,&#34;g&#34;:0.15294118225574493,&#34;b&#34;:0.47450980544090271,&#34;a&#34;:1.0},&#34;position&#34;:0.0},{&#34;color&#34;:{&#34;r&#34;:0.027450980618596077,&#34;g&#34;:0.15294118225574493,&#34;b&#34;:0.47450980544090271,&#34;a&#34;:1.0},&#34;position&#34;:0.24773198366165161},{&#34;color&#34;:{&#34;r&#34;:0.027450980618596077,&#34;g&#34;:0.15294118225574493,&#34;b&#34;:0.47450980544090271,&#34;a&#34;:0.0},&#34;position&#34;:0.50}],&#34;stopsVar&#34;:[{&#34;color&#34;:{&#34;r&#34;:0.027450980618596077,&#34;g&#34;:0.15294118225574493,&#34;b&#34;:0.47450980544090271,&#34;a&#34;:1.0},&#34;position&#34;:0.0},{&#34;color&#34;:{&#34;r&#34;:0.027450980618596077,&#34;g&#34;:0.15294118225574493,&#34;b&#34;:0.47450980544090271,&#34;a&#34;:1.0},&#34;position&#34;:0.24773198366165161},{&#34;color&#34;:{&#34;r&#34;:0.027450980618596077,&#34;g&#34;:0.15294118225574493,&#34;b&#34;:0.47450980544090271,&#34;a&#34;:0.0},&#34;position&#34;:0.50}],&#34;transform&#34;:{&#34;m00&#34;:-87.583000183105469,&#34;m01&#34;:153.65438842773438,&#34;m02&#34;:106.23592376708984,&#34;m10&#34;:-153.83256530761719,&#34;m11&#34;:-87.684562683105469,&#34;m12&#34;:263.963378906250},&#34;opacity&#34;:1.0,&#34;blendMode&#34;:&#34;NORMAL&#34;,&#34;visible&#34;:true}"/>
<g clip-path="url(#paint1_angular_8883_1802_clip_path)" data-figma-skip-parse="true"><g transform="matrix(0.0437915 -0.0769163 -0.0768272 -0.0438423 138.886 89.1316)"><foreignObject x="-1442.53" y="-1442.53" width="2885.06" height="2885.06"><div xmlns="http://www.w3.org/1999/xhtml" style="background:conic-gradient(from 90deg,rgba(7, 39, 121, 0.0002) 0deg,rgba(7, 39, 121, 0) 1.37082deg,rgba(7, 39, 121, 1) 90deg,rgba(7, 39, 121, 0.0275) 178.564deg,rgba(7, 39, 121, 0.0002) 360deg);height:100%;width:100%;opacity:1"></div></foreignObject></g></g><path d="M86.1249 10.9091H182.135L166.848 36.9256H86.7763C69.4454 36.9256 58.6681 55.7715 67.4423 70.7347L107.743 139.462L92.4562 165.988L44.6151 82.7842C26.2337 50.8163 49.2813 10.9091 86.1249 10.9091Z" data-figma-gradient-fill="{&#34;type&#34;:&#34;GRADIENT_ANGULAR&#34;,&#34;stops&#34;:[{&#34;color&#34;:{&#34;r&#34;:0.027450980618596077,&#34;g&#34;:0.15294118225574493,&#34;b&#34;:0.47450980544090271,&#34;a&#34;:0.0},&#34;position&#34;:0.0038078438956290483},{&#34;color&#34;:{&#34;r&#34;:0.027450980618596077,&#34;g&#34;:0.15294118225574493,&#34;b&#34;:0.47450980544090271,&#34;a&#34;:1.0},&#34;position&#34;:0.250},{&#34;color&#34;:{&#34;r&#34;:0.027450980618596077,&#34;g&#34;:0.15294118225574493,&#34;b&#34;:0.47450980544090271,&#34;a&#34;:0.027450980618596077},&#34;position&#34;:0.49601101875305176}],&#34;stopsVar&#34;:[{&#34;color&#34;:{&#34;r&#34;:0.027450980618596077,&#34;g&#34;:0.15294118225574493,&#34;b&#34;:0.47450980544090271,&#34;a&#34;:0.0},&#34;position&#34;:0.0038078438956290483},{&#34;color&#34;:{&#34;r&#34;:0.027450980618596077,&#34;g&#34;:0.15294118225574493,&#34;b&#34;:0.47450980544090271,&#34;a&#34;:1.0},&#34;position&#34;:0.250},{&#34;color&#34;:{&#34;r&#34;:0.027450980618596077,&#34;g&#34;:0.15294118225574493,&#34;b&#34;:0.47450980544090271,&#34;a&#34;:0.027450980618596077},&#34;position&#34;:0.49601101875305176}],&#34;transform&#34;:{&#34;m00&#34;:87.58300781250,&#34;m01&#34;:-153.65440368652344,&#34;m02&#34;:171.92135620117188,&#34;m10&#34;:-153.83253479003906,&#34;m11&#34;:-87.684539794921875,&#34;m12&#34;:209.89010620117188},&#34;opacity&#34;:1.0,&#34;blendMode&#34;:&#34;NORMAL&#34;,&#34;visible&#34;:true}"/>
<g clip-path="url(#paint2_angular_8883_1802_clip_path)" data-figma-skip-parse="true"><g transform="matrix(0.0884314 1.83581e-09 0 -0.0885339 89.2888 120.734)"><foreignObject x="-1240.57" y="-1240.57" width="2481.14" height="2481.14"><div xmlns="http://www.w3.org/1999/xhtml" style="background:conic-gradient(from 90deg,rgba(7, 39, 121, 1) 0deg,rgba(7, 39, 121, 0) 180deg,rgba(7, 39, 121, 1) 270deg,rgba(7, 39, 121, 1) 360deg);height:100%;width:100%;opacity:1"></div></foreignObject></g></g><path d="M48.0049 205.591L0 122.348L30.1479 122.592L70.184 192.017C78.8494 207.045 100.54 206.965 109.097 191.876L148.396 122.572L178.986 122.562L130.933 205.644C112.47 237.565 66.4267 237.535 48.0049 205.591Z" data-figma-gradient-fill="{&#34;type&#34;:&#34;GRADIENT_ANGULAR&#34;,&#34;stops&#34;:[{&#34;color&#34;:{&#34;r&#34;:0.027450980618596077,&#34;g&#34;:0.15294118225574493,&#34;b&#34;:0.47450980544090271,&#34;a&#34;:0.0},&#34;position&#34;:0.50},{&#34;color&#34;:{&#34;r&#34;:0.027450980618596077,&#34;g&#34;:0.15294118225574493,&#34;b&#34;:0.47450980544090271,&#34;a&#34;:1.0},&#34;position&#34;:0.750},{&#34;color&#34;:{&#34;r&#34;:0.027450980618596077,&#34;g&#34;:0.15294118225574493,&#34;b&#34;:0.47450980544090271,&#34;a&#34;:1.0},&#34;position&#34;:1.0}],&#34;stopsVar&#34;:[{&#34;color&#34;:{&#34;r&#34;:0.027450980618596077,&#34;g&#34;:0.15294118225574493,&#34;b&#34;:0.47450980544090271,&#34;a&#34;:0.0},&#34;position&#34;:0.50},{&#34;color&#34;:{&#34;r&#34;:0.027450980618596077,&#34;g&#34;:0.15294118225574493,&#34;b&#34;:0.47450980544090271,&#34;a&#34;:1.0},&#34;position&#34;:0.750},{&#34;color&#34;:{&#34;r&#34;:0.027450980618596077,&#34;g&#34;:0.15294118225574493,&#34;b&#34;:0.47450980544090271,&#34;a&#34;:1.0},&#34;position&#34;:1.0}],&#34;transform&#34;:{&#34;m00&#34;:176.86288452148438,&#34;m01&#34;:-1.0832042818265109e-07,&#34;m02&#34;:0.85732978582382202,&#34;m10&#34;:3.6716139675263548e-06,&#34;m11&#34;:-177.06790161132812,&#34;m12&#34;:209.26824951171875},&#34;opacity&#34;:1.0,&#34;blendMode&#34;:&#34;NORMAL&#34;,&#34;visible&#34;:true}"/>
<circle cx="123.356" cy="115" r="13" fill="#FF8000"/>
<defs>
<clipPath id="paint0_angular_8883_1802_clip_path"><path d="M192.032 64.9823H96.0225L111.309 90.9989H191.38C208.712 90.9989 219.488 109.845 210.716 124.808L170.414 193.535L185.701 220.061L233.542 136.858C251.923 104.89 228.876 64.9823 192.032 64.9823Z"/></clipPath><clipPath id="paint1_angular_8883_1802_clip_path"><path d="M86.1249 10.9091H182.135L166.848 36.9256H86.7763C69.4454 36.9256 58.6681 55.7715 67.4423 70.7347L107.743 139.462L92.4562 165.988L44.6151 82.7842C26.2337 50.8163 49.2813 10.9091 86.1249 10.9091Z"/></clipPath><clipPath id="paint2_angular_8883_1802_clip_path"><path d="M48.0049 205.591L0 122.348L30.1479 122.592L70.184 192.017C78.8494 207.045 100.54 206.965 109.097 191.876L148.396 122.572L178.986 122.562L130.933 205.644C112.47 237.565 66.4267 237.535 48.0049 205.591Z"/></clipPath></defs>
</svg>
