<svg width="675" height="127" viewBox="0 0 675 127" fill="none" xmlns="http://www.w3.org/2000/svg">
<path d="M31.1241 99.2C22.4441 99.2 15.3348 97.34 9.79611 93.62C4.34011 89.8173 1.07478 84.5267 0.000109434 77.748H19.2201C20.8734 81.716 25.2961 83.7 32.4881 83.7C39.1014 83.7 42.4081 81.964 42.4081 78.492C42.4081 75.8467 40.1348 74.3173 35.5881 73.904L21.4521 72.416C15.7481 71.8373 10.9948 69.936 7.19211 66.712C3.38944 63.488 1.48811 59.1067 1.48811 53.568C1.48811 47.0373 4.09211 41.8707 9.30011 38.068C14.5081 34.1827 21.4108 32.24 30.0081 32.24C38.4401 32.24 45.3428 34.1827 50.7161 38.068C56.1721 41.8707 59.3961 47.0787 60.3881 53.692H40.9201C40.2588 51.8733 38.9361 50.4267 36.9521 49.352C34.9681 48.1947 32.6121 47.616 29.8841 47.616C23.1881 47.616 19.8401 49.3107 19.8401 52.7C19.8401 55.18 21.9894 56.6267 26.2881 57.04L39.8041 58.28C53.8574 59.52 60.8841 65.6787 60.8841 76.756C60.8841 83.8653 58.1148 89.404 52.5761 93.372C47.0374 97.2573 39.8868 99.2 31.1241 99.2ZM103.582 99.2C95.5631 99.2 89.5698 96.72 85.6018 91.76V125.24H67.0018V65.72C67.0018 56.1307 70.2671 48.1533 76.7978 41.788C83.3284 35.4227 91.4711 32.24 101.226 32.24C110.898 32.24 118.958 35.4227 125.406 41.788C131.936 48.0707 135.202 56.048 135.202 65.72C135.202 75.3093 132.143 83.2867 126.026 89.652C119.908 96.0173 112.427 99.2 103.582 99.2ZM90.3138 54.808C87.3378 57.784 85.8498 61.4213 85.8498 65.72C85.8498 70.0187 87.3378 73.656 90.3138 76.632C93.2898 79.608 96.9271 81.096 101.226 81.096C105.442 81.096 108.996 79.608 111.89 76.632C114.866 73.656 116.354 70.0187 116.354 65.72C116.354 61.4213 114.866 57.784 111.89 54.808C108.996 51.832 105.442 50.344 101.226 50.344C96.9271 50.344 93.2898 51.832 90.3138 54.808ZM170.106 99.2C161.178 99.2 153.655 96.0173 147.538 89.652C141.503 83.2867 138.486 75.3093 138.486 65.72C138.486 56.048 141.751 48.0707 148.282 41.788C154.813 35.4227 163.079 32.24 173.082 32.24C182.754 32.24 190.773 35.2987 197.138 41.416C203.503 47.5333 206.686 55.2213 206.686 64.48V97.96H189.574V88.412C185.11 95.604 178.621 99.2 170.106 99.2ZM183.498 76.756C186.391 73.8627 187.838 70.184 187.838 65.72C187.838 61.256 186.391 57.5773 183.498 54.684C180.687 51.7907 177.05 50.344 172.586 50.344C168.205 50.344 164.567 51.832 161.674 54.808C158.781 57.7013 157.334 61.3387 157.334 65.72C157.334 70.1013 158.781 73.78 161.674 76.756C164.567 79.6493 168.205 81.096 172.586 81.096C177.05 81.096 180.687 79.6493 183.498 76.756ZM248.531 33.48H256.467V51.832H248.531C243.984 51.832 240.347 53.3613 237.619 56.42C234.891 59.396 233.527 63.1987 233.527 67.828V97.96H214.927V67.828C214.927 44.9293 226.128 33.48 248.531 33.48ZM324.17 77.376C321.938 84.816 317.929 90.3133 312.142 93.868C306.355 97.4227 299.37 99.2 291.186 99.2C281.514 99.2 273.578 96.0587 267.378 89.776C261.178 83.4933 258.078 75.4747 258.078 65.72C258.078 55.8827 261.261 47.864 267.626 41.664C274.074 35.3813 282.258 32.24 292.178 32.24C301.767 32.24 309.538 35.1747 315.49 41.044C321.442 46.8307 324.418 54.1467 324.418 62.992C324.418 66.1333 324.087 69.2333 323.426 72.292H278.786C277.546 72.292 276.926 72.912 276.926 74.152C276.926 76.632 278.414 78.74 281.39 80.476C284.366 82.212 287.921 83.08 292.054 83.08C299.659 83.08 304.33 81.1787 306.066 77.376H324.17ZM302.47 50.468C299.907 48.6493 296.601 47.74 292.55 47.74C288.499 47.74 285.027 48.6907 282.134 50.592C279.323 52.4107 277.505 54.9733 276.678 58.28H304.826C305.901 58.28 306.438 57.784 306.438 56.792C306.438 54.312 305.115 52.204 302.47 50.468ZM331.019 62.868C331.019 53.3613 333.954 45.88 339.823 40.424C345.692 34.968 353.298 32.24 362.639 32.24C371.98 32.24 379.586 34.968 385.455 40.424C391.324 45.88 394.259 53.3613 394.259 62.868V97.96H375.659V63.24C375.659 59.1893 374.419 56.048 371.939 53.816C369.542 51.5013 366.442 50.344 362.639 50.344C358.836 50.344 355.695 51.5013 353.215 53.816C350.818 56.048 349.619 59.1893 349.619 63.24V97.96H331.019V62.868ZM468.391 95.852C468.391 105.441 465.332 112.923 459.215 118.296C453.18 123.752 445.161 126.48 435.159 126.48C426.892 126.48 419.989 124.413 414.451 120.28C408.995 116.147 405.316 110.36 403.415 102.92H423.503C425.321 107.219 429.207 109.368 435.159 109.368C439.705 109.368 443.26 108.211 445.823 105.896C448.468 103.581 449.791 100.233 449.791 95.852V90.52C445.244 95.0667 439.416 97.34 432.307 97.34C423.213 97.34 415.567 94.364 409.367 88.412C403.249 82.3773 400.191 74.8133 400.191 65.72C400.191 56.048 403.373 48.0707 409.739 41.788C416.187 35.4227 424.329 32.24 434.167 32.24C444.004 32.24 452.147 35.4227 458.595 41.788C465.125 48.0707 468.391 56.0067 468.391 65.596V95.852ZM445.327 76.756C448.137 73.78 449.543 70.1013 449.543 65.72C449.543 61.3387 448.096 57.7013 445.203 54.808C442.309 51.832 438.713 50.344 434.415 50.344C429.951 50.344 426.272 51.832 423.379 54.808C420.485 57.7013 419.039 61.3387 419.039 65.72C419.039 70.1013 420.527 73.78 423.503 76.756C426.479 79.6493 430.24 81.096 434.787 81.096C439.085 81.096 442.599 79.6493 445.327 76.756ZM496.109 19.716C493.877 21.948 491.19 23.064 488.049 23.064C484.907 23.064 482.179 21.948 479.865 19.716C477.633 17.4013 476.517 14.6733 476.517 11.532C476.517 8.39067 477.633 5.704 479.865 3.472C482.179 1.15734 484.907 4.05312e-06 488.049 4.05312e-06C491.19 4.05312e-06 493.877 1.15734 496.109 3.472C498.423 5.704 499.581 8.39067 499.581 11.532C499.581 14.6733 498.423 17.4013 496.109 19.716ZM478.749 33.48H497.349V97.96H478.749V33.48ZM508.107 62.868C508.107 53.3613 511.041 45.88 516.911 40.424C522.78 34.968 530.385 32.24 539.727 32.24C549.068 32.24 556.673 34.968 562.543 40.424C568.412 45.88 571.347 53.3613 571.347 62.868V97.96H552.747V63.24C552.747 59.1893 551.507 56.048 549.027 53.816C546.629 51.5013 543.529 50.344 539.727 50.344C535.924 50.344 532.783 51.5013 530.303 53.816C527.905 56.048 526.707 59.1893 526.707 63.24V97.96H508.107V62.868ZM643.494 77.376C641.262 84.816 637.253 90.3133 631.466 93.868C625.68 97.4227 618.694 99.2 610.51 99.2C600.838 99.2 592.902 96.0587 586.702 89.776C580.502 83.4933 577.402 75.4747 577.402 65.72C577.402 55.8827 580.585 47.864 586.95 41.664C593.398 35.3813 601.582 32.24 611.502 32.24C621.092 32.24 628.862 35.1747 634.814 41.044C640.766 46.8307 643.742 54.1467 643.742 62.992C643.742 66.1333 643.412 69.2333 642.75 72.292H598.11C596.87 72.292 596.25 72.912 596.25 74.152C596.25 76.632 597.738 78.74 600.714 80.476C603.69 82.212 607.245 83.08 611.378 83.08C618.984 83.08 623.654 81.1787 625.39 77.376H643.494ZM621.794 50.468C619.232 48.6493 615.925 47.74 611.874 47.74C607.824 47.74 604.352 48.6907 601.458 50.592C598.648 52.4107 596.829 54.9733 596.002 58.28H624.15C625.225 58.28 625.762 57.784 625.762 56.792C625.762 54.312 624.44 52.204 621.794 50.468Z" fill="#072779"/>
<path d="M671.175 95.604C668.778 98.0013 665.885 99.2 662.495 99.2C659.106 99.2 656.213 98.0013 653.815 95.604C651.418 93.2067 650.219 90.3133 650.219 86.924C650.219 83.5347 651.418 80.6413 653.815 78.244C656.213 75.8467 659.106 74.648 662.495 74.648C665.885 74.648 668.778 75.8467 671.175 78.244C673.573 80.6413 674.771 83.5347 674.771 86.924C674.771 90.3133 673.573 93.2067 671.175 95.604Z" fill="#FF8000"/>
</svg>
